<svg width="136" height="40" viewBox="0 0 136 40" fill="none" xmlns="http://www.w3.org/2000/svg">
<g clip-path="url(#clip0_17_5)">
<path d="M16.0008 10.2473C18.8857 10.2473 21.2243 7.95333 21.2243 5.12363C21.2243 2.29393 18.8857 0 16.0008 0C13.116 0 10.7773 2.29393 10.7773 5.12363C10.7773 7.95333 13.116 10.2473 16.0008 10.2473Z" fill="#1F4D36"/>
<path d="M15.9988 14.3916H26.4507C26.4507 20.017 21.7338 24.6437 15.9988 24.6437C10.2638 24.6437 5.54688 20.017 5.54688 14.3916H15.9988Z" fill="#1F4D36"/>
<path d="M16 24.3008H32C32 32.9125 24.7747 39.9949 16 39.9949C7.22533 39.9949 0 32.9125 0 24.3008H16Z" fill="#1F4D36"/>
</g>
<path d="M52.74 28.5H54.56L58.2 16.74L61.84 28.5H63.66L69.12 10.86H66.46L62.68 23.04L59.04 10.86H57.36L53.72 23.04L49.94 10.86H47.28L52.74 28.5ZM71.0745 28.5H73.5945V15.9H71.0745V28.5ZM72.3345 10.86C71.4665 10.86 70.7945 11.532 70.7945 12.4C70.7945 13.268 71.4665 13.94 72.3345 13.94C73.2025 13.94 73.8745 13.268 73.8745 12.4C73.8745 11.532 73.2025 10.86 72.3345 10.86ZM76.2534 24.44C76.3934 27.128 77.9054 28.64 81.0134 28.64C83.9534 28.64 85.6334 26.96 85.6334 24.72C85.6334 20.268 78.9134 21.78 78.9134 19.54C78.9134 18.84 79.6134 18.14 80.8734 18.14C82.1334 18.14 82.8334 18.812 82.9734 19.68H85.4934C85.3534 17.3 83.8134 15.76 80.8734 15.76C78.2134 15.76 76.5334 17.44 76.5334 19.54C76.5334 23.992 83.2534 22.48 83.2534 24.72C83.2534 25.588 82.5814 26.26 81.0134 26.26C79.5854 26.26 78.9134 25.56 78.7734 24.44H76.2534ZM97.8211 28.5H99.6411V10.86H97.1211V17.16C96.8691 16.908 96.5891 16.656 96.2531 16.46C95.6651 16.124 94.8251 15.76 93.6211 15.76C90.2611 15.76 87.6011 18.42 87.6011 22.2C87.6011 25.98 90.2611 28.64 93.6211 28.64C94.8811 28.64 95.8051 28.304 96.3931 27.94C96.7291 27.744 97.0091 27.492 97.2611 27.24L97.8211 28.5ZM93.7611 26.26C91.8291 26.26 90.1211 24.58 90.1211 22.2C90.1211 19.82 91.8291 18.14 93.7611 18.14C95.6931 18.14 97.4011 19.82 97.4011 22.2C97.4011 24.58 95.6931 26.26 93.7611 26.26ZM108.469 26.26C106.649 26.26 104.969 24.58 104.969 22.2C104.969 19.82 106.649 18.14 108.469 18.14C110.289 18.14 111.969 19.82 111.969 22.2C111.969 24.58 110.289 26.26 108.469 26.26ZM108.469 28.64C111.829 28.64 114.489 25.98 114.489 22.2C114.489 18.42 111.829 15.76 108.469 15.76C105.109 15.76 102.449 18.42 102.449 22.2C102.449 25.98 105.109 28.64 108.469 28.64ZM117.149 28.5H119.669V20.94C119.669 19.26 120.789 18.14 122.049 18.14C123.309 18.14 124.429 19.26 124.429 20.94V28.5H126.949V20.94C126.949 19.26 128.069 18.14 129.329 18.14C130.589 18.14 131.709 19.26 131.709 20.94V28.5H134.229V20.94C134.229 17.692 132.241 15.76 129.889 15.76C128.629 15.76 127.705 16.264 127.061 16.74C126.697 17.048 126.361 17.356 126.109 17.72C125.857 17.356 125.577 17.048 125.241 16.74C124.653 16.264 123.813 15.76 122.609 15.76C121.629 15.76 120.873 16.124 120.341 16.46C120.033 16.656 119.753 16.908 119.529 17.16L118.969 15.9H117.149V28.5Z" fill="#1F4D36"/>
<defs>
<clipPath id="clip0_17_5">
<rect width="32" height="40" fill="white"/>
</clipPath>
</defs>
</svg>
