<svg width="29" height="28" viewBox="0 0 29 28" fill="none" xmlns="http://www.w3.org/2000/svg">
<path opacity="0.12" d="M11.582 10.4592C11.582 9.90233 11.582 9.62391 11.6984 9.46848C11.7998 9.33303 11.955 9.24828 12.1238 9.23623C12.3175 9.22239 12.5517 9.37295 13.0201 9.67406L18.5274 13.2145C18.9339 13.4758 19.1371 13.6064 19.2073 13.7726C19.2686 13.9177 19.2686 14.0815 19.2073 14.2266C19.1371 14.3928 18.9339 14.5234 18.5274 14.7847L13.0201 18.3252C12.5517 18.6263 12.3175 18.7768 12.1238 18.763C11.955 18.7509 11.7998 18.6662 11.6984 18.5307C11.582 18.3753 11.582 18.0969 11.582 17.5401V10.4592Z" fill="#1F4D36"/>
<path d="M14.4987 25.6663C20.942 25.6663 26.1654 20.443 26.1654 13.9997C26.1654 7.55635 20.942 2.33301 14.4987 2.33301C8.05538 2.33301 2.83203 7.55635 2.83203 13.9997C2.83203 20.443 8.05538 25.6663 14.4987 25.6663Z" stroke="#1F4D36" stroke-linecap="round" stroke-linejoin="round"/>
<path d="M11.582 10.4592C11.582 9.9024 11.582 9.62398 11.6984 9.46855C11.7998 9.33309 11.955 9.24835 12.1238 9.23629C12.3175 9.22246 12.5517 9.37302 13.0201 9.67413L18.5274 13.2146C18.9339 13.4759 19.1371 13.6065 19.2073 13.7726C19.2686 13.9178 19.2686 14.0816 19.2073 14.2267C19.1371 14.3928 18.9339 14.5235 18.5274 14.7848L13.0201 18.3252C12.5517 18.6263 12.3175 18.7769 12.1238 18.7631C11.955 18.751 11.7998 18.6663 11.6984 18.5308C11.582 18.3754 11.582 18.097 11.582 17.5401V10.4592Z" stroke="#1F4D36" stroke-linecap="round" stroke-linejoin="round"/>
</svg>
