<svg width="135" height="135" viewBox="0 0 135 135" fill="none" xmlns="http://www.w3.org/2000/svg">
<rect width="135" height="135" rx="67.5" fill="#F1EABA"/>
<path fill-rule="evenodd" clip-rule="evenodd" d="M28.9859 46.4063C28.9358 46.2189 28.8401 46.118 28.6637 46.1521C28.3599 46.2105 28.1898 46.3974 28.1725 46.7112C28.163 46.8832 28.2642 46.9165 28.4074 46.8911C28.7017 46.8387 28.8382 46.6091 28.9859 46.4063ZM27.4344 101.663C27.7345 100.819 27.9289 99.9486 28.1812 99.093C27.6867 99.877 27.419 100.729 27.4344 101.663ZM29.6562 44.657C30.9082 43.3071 32.2147 42.0107 33.5416 40.7344C31.9291 41.7298 30.6836 43.0859 29.6562 44.657ZM54.3281 31.2964C56.9129 30.1272 59.0627 28.3757 61.1146 26.4883C58.974 28.0966 56.8362 29.7066 54.5511 31.109C54.4694 31.1594 54.4022 31.2335 54.3281 31.2964ZM83.8918 96.2559C83.1406 98.8227 81.6492 100.999 80.8984 103.491C81.8427 102.825 84.2809 97.0919 83.8918 96.2559ZM53.576 121.773C54.08 121.773 54.5888 121.817 55.0875 121.766C57.131 121.556 59.1477 121.168 61.1641 120.786C64.1558 120.22 66.9154 118.948 69.7466 117.905C71.0528 117.423 72.3022 116.767 73.1872 115.608C76.1118 111.779 78.4664 107.656 80.1379 103.106C81.4721 99.4745 83.2079 95.9925 84.6339 92.3921C85.652 89.8222 86.3018 87.1295 86.5929 84.3662C86.8354 82.0643 86.6992 79.7556 86.7157 77.4489C86.7292 75.5519 86.6956 73.6563 86.815 71.7532C86.8989 70.4129 86.5982 69.0166 86.4833 67.6435C86.2805 65.2257 86.3171 62.8379 87.0519 60.4926C87.7299 58.3288 88.649 56.2685 89.7902 54.322C92.1003 50.381 94.9961 46.8701 98.0337 43.4804C99.6652 41.66 101.265 39.8218 102.614 37.7814C105.097 34.0269 106.288 29.8803 106.185 25.3904C106.105 21.8804 104.567 19.1552 101.539 17.3036C96.2758 14.0853 90.7186 13.0554 84.753 15.0153C80.1329 16.5333 76.0192 18.9452 72.2561 22.0085C69.9091 23.9192 67.7663 26.0581 65.4257 27.9743C62.2379 30.5848 58.9992 33.1176 55.2447 34.8926C52.3391 36.2665 49.285 37.2329 46.2133 38.1413C43.5911 38.917 41.0905 39.9639 38.7281 41.3381C36.0016 42.924 33.699 44.953 32.1053 47.7173C31.9159 48.0465 31.9086 48.0423 31.4773 48.0513C31.3464 48.0541 31.3383 48.1629 31.2944 48.2502C30.8955 49.0459 30.6351 49.8761 30.6245 50.7759C30.6172 51.3837 30.8519 52.253 30.6438 52.5456C29.9756 53.4843 30.4788 54.3936 30.6018 55.1846C30.7548 56.1658 31.0119 57.1839 31.3126 58.1671C32.0669 60.6352 32.9337 63.0592 34.163 65.3264C35.2903 67.4063 36.3822 69.5047 36.7075 71.8604C36.8015 72.5431 37.6244 73.3227 36.7461 74.0518C36.7458 74.0521 36.8077 74.1201 36.834 74.1607C37.3002 74.8792 37.5357 75.6904 37.5713 76.5236C37.6057 77.3196 37.8901 78.0637 37.9242 78.8505C37.9793 80.1203 38.4504 81.3547 38.1782 82.6589C38.0546 83.2525 38.0834 83.8821 38.0823 84.4955C38.0798 85.8607 37.6171 87.1616 37.5455 88.5302C37.5187 89.0429 37.0709 89.6944 36.8242 90.2815C35.9397 92.386 34.3709 93.989 32.9944 95.7449C31.6994 97.3966 30.2444 99.0158 30.1082 101.28C30.0533 102.194 29.7815 103.158 30.2528 104.015C31.5207 106.319 32.1875 108.931 33.927 110.997C35.2808 112.604 36.1898 114.552 37.8392 115.949C39.4523 117.315 40.9923 118.786 42.8557 119.795C43.7704 120.29 44.6979 120.798 45.7717 121.034C48.3517 121.604 50.947 121.81 53.576 121.773ZM74.9256 15.4475C75.068 15.4045 75.2221 15.3829 75.3511 15.3144C78.5719 13.6015 81.9286 12.2449 85.4887 11.412C85.6174 11.3818 85.7938 11.3862 85.8702 11.1885C85.6294 11.2229 85.4031 11.2497 85.1788 11.2886C82.2229 11.8027 79.4829 12.9308 76.8215 14.2666C76.1591 14.5992 75.4341 14.8574 74.9391 15.4632C74.1455 15.5186 73.6611 16.1882 72.9744 16.4637C72.8541 16.5118 72.7243 16.7306 72.9078 16.9163C72.9688 16.9778 73.053 17.0175 73.0908 16.9451C73.4905 16.1829 74.4599 16.1233 74.9256 15.4475ZM65.9274 27.0421C66.8488 26.469 67.5819 25.6861 68.3136 24.9023C67.5256 25.6231 66.5735 26.1638 65.9422 27.0578C65.2695 27.2961 64.8396 27.8423 64.3594 28.324C64.9697 28.0057 65.4936 27.5794 65.9274 27.0421ZM86.2596 100.334C85.7248 101.797 85.2126 103.251 84.1302 104.456C83.476 105.184 82.9543 106.06 82.5227 106.943C82.3664 107.264 82.0791 107.36 81.9155 107.647C81.5337 108.316 81.3935 109.071 80.9046 109.721C79.8026 111.185 78.7148 112.656 77.5644 114.087C76.8053 115.03 76.0948 116.022 75.306 116.944C73.8362 118.66 71.9602 119.812 69.8778 120.632C67.4715 121.579 65.0879 122.607 62.6281 123.393C58.0443 124.857 53.3657 125.446 48.5237 124.869C45.6067 124.521 42.7657 123.97 40.2657 122.48C36.2676 120.097 32.9716 116.924 30.6436 112.83C30.5563 112.677 30.4441 112.538 30.3393 112.395C29.3877 111.101 28.5287 109.764 28.0918 108.188C27.8753 107.408 27.5556 106.66 27.2026 105.924C26.1557 103.743 26.3568 101.546 27.2024 99.3574C28.0535 97.155 29.475 95.2852 31.064 93.6274C33.1872 91.4121 34.1835 88.843 34.5007 85.8737C34.7958 83.1119 34.3111 80.4371 33.8191 77.7522C33.5173 76.1047 33.2474 74.4505 32.9232 72.8075C32.4001 70.159 31.1817 67.7983 29.9306 65.4317C28.3019 62.3502 27.0569 59.1062 26.3042 55.6854C25.6743 52.8229 25.9848 50.0121 26.9596 47.3133C27.5212 45.7584 28.2513 44.2323 29.4344 42.9728C30.5862 41.7463 31.7484 40.5452 33.122 39.5657C36.4234 37.2109 40.0629 35.5589 43.9217 34.3565C48.3274 32.9837 52.618 31.3594 56.3823 28.594C59.1715 26.5449 61.8254 24.3335 64.3743 21.9941C67.8452 18.8085 71.4805 15.8431 75.6817 13.6499C79.7542 11.5242 84.0077 9.86942 88.6628 9.91193C95.6694 9.97599 101.669 12.4519 105.918 18.215C109.061 22.4777 109.57 27.3622 108.544 32.4618C108.358 33.3825 108.171 34.3031 107.955 35.2171C107.402 37.5653 106.448 39.7243 105.045 41.7046C104.227 42.8587 103.345 43.9638 102.527 45.1056C101.567 46.4456 100.497 47.6735 99.3914 48.8707C98.111 50.2572 96.9765 51.7449 95.8982 53.2852C95.5226 53.8217 94.9271 54.1473 94.5637 54.7246C93.1901 56.9077 91.7619 59.0584 90.7813 61.4596C90.2518 62.7558 89.712 64.0198 89.6076 65.4804C89.5442 66.376 89.5987 67.2685 89.5207 68.1586C89.4037 69.4916 89.6337 70.8054 89.8457 72.1083C89.9271 72.6084 89.3207 73.0131 89.4513 73.0481C90.1581 73.2358 89.6611 73.633 89.6756 73.9216C89.684 74.0922 89.5758 74.2796 89.6144 74.4363C90.2705 77.0988 89.9869 79.8181 90.0429 82.5072C90.0949 85.0035 90.3131 87.5472 89.6381 89.994C89.3917 90.8863 89.2121 91.8026 88.9523 92.6946C88.6404 93.7645 88.0651 94.768 87.9691 95.8843C87.834 97.4566 87.0394 98.7743 86.4671 100.18C86.4358 100.257 86.3197 100.3 86.242 100.361C86.3152 99.5241 87.0008 98.9001 87.0249 98.0392C86.4375 99.2875 85.7041 100.47 85.3998 101.846C85.6865 101.342 85.9729 100.838 86.2596 100.334Z" fill="black"/>
<path fill-rule="evenodd" clip-rule="evenodd" d="M60.4531 39.2665C62.0942 38.3035 63.4247 36.9838 64.6702 35.5674C63.2698 36.8068 61.893 38.0727 60.4531 39.2665ZM69.9391 31.0251C69.8846 30.9669 69.83 30.9088 69.7755 30.8506C68.3375 32.1644 66.7799 33.3442 65.5312 34.8699L69.9391 31.0251ZM36.8815 100.639C36.0388 101.475 35.655 104.07 36.208 104.604C36.3657 103.29 36.3699 101.927 36.8815 100.639ZM43.2602 48.375C41.2829 49.7151 39.5183 51.2523 38.6641 53.5918C40.0237 51.7001 41.5173 49.9302 43.2602 48.375ZM72.6367 28.6414C75.9426 26.0519 79.4092 23.7533 83.2882 22.1221C80.747 22.4586 73.6985 27.1165 72.6367 28.6414ZM71.4747 90.4033C70.6848 91.9811 70.1953 93.6708 69.7302 95.3566C69.2544 97.0807 68.6122 98.745 68.055 100.437C67.5283 102.037 66.7672 103.56 66.1094 105.117C68.9249 100.576 69.9749 95.4123 71.4747 90.4033ZM43.1907 65.0778C43.2038 64.9808 43.1823 64.8409 43.2377 64.7959C43.3378 64.7142 43.3896 64.8387 43.4561 64.9122C43.6447 65.1192 43.5566 65.4316 43.815 65.6389C44.2919 66.0207 44.62 66.5012 44.8575 67.1082C45.06 67.6256 45.6127 68.0019 45.9894 68.4578C46.0736 68.5593 46.1791 68.731 46.0705 68.8754C45.8689 69.143 46.0305 69.2309 46.2526 69.2938C46.527 69.371 46.6722 69.5785 46.7653 69.8177C47.1015 70.6792 47.5491 71.4973 47.6492 72.4464C47.7138 73.0586 47.8125 73.7903 48.0394 74.237C48.671 75.4817 48.6939 76.7941 48.634 78.0407C48.5798 79.1696 48.3627 80.3259 48.4148 81.4568C48.4595 82.4338 47.9681 83.2301 47.8313 84.14C47.6657 85.2415 46.9021 86.2028 46.7516 87.3477C46.6588 88.0508 45.9164 88.5851 45.9229 89.142C45.9374 90.4294 44.797 91.1223 44.5957 92.2833C44.5316 92.6525 44.3803 93.2055 44.0592 93.5568C43.3994 94.2779 43.2064 95.2759 42.523 95.9942C41.6627 96.8987 41.216 98.1099 40.2985 99.0077C39.7475 99.5473 39.3168 100.243 38.8346 100.864C38.3977 101.426 38.4368 102.297 38.2925 103.039C38.0833 104.114 38.7 104.951 38.9783 105.896C39.6435 108.152 41.0297 110.017 42.6525 111.522C45.8219 114.461 49.6178 115.427 53.8382 113.888C54.2667 113.732 54.6947 113.575 55.1268 113.43C57.661 112.579 59.8502 111.173 61.8837 109.447C64.5448 107.188 65.8049 104.038 67.2792 101.056C67.795 100.013 67.9955 98.7347 68.3849 97.5768C68.6514 96.7841 68.9384 95.9925 69.1219 95.1788C69.3068 94.3585 69.5588 93.5613 69.8044 92.7616C70.0494 91.9633 70.3945 91.1922 70.5887 90.3833C70.7615 89.6639 71.1153 89.0211 71.2644 88.2754C71.4636 87.2786 71.7889 86.2856 72.0596 85.2907C73.033 81.7127 73.7611 78.0877 74.1996 74.4035C74.4427 72.3616 74.6198 70.3005 75.0427 68.2933C76.4088 61.8061 79.396 56.0744 83.5105 50.9231C85.3495 48.6208 87.3005 46.4072 89.2257 44.1749C91.9825 40.9787 93.4783 37.1744 94.6053 33.1836C95.3062 30.7023 95.1848 28.251 94.2741 25.8564C93.7547 24.4918 92.981 23.3522 91.3486 23.0829C89.8287 22.832 88.3457 23.192 86.9086 23.4577C86.0541 23.616 85.1233 24.0224 84.2657 24.4372C82.2084 25.4327 80.1218 26.3728 78.3331 27.8216C77.9071 28.1662 77.3768 28.2124 76.9511 28.5567C76.4062 28.9972 76.0256 29.5922 75.4312 29.988C75.0899 30.2148 74.681 30.2369 74.3664 30.5278C72.3709 32.3711 70.1154 33.9215 68.3144 35.9879C67.6892 36.7056 66.917 37.2933 66.2359 37.9646C63.6785 40.4839 60.7025 42.3688 57.3499 43.6004C53.2399 45.1102 49.4043 47.1342 45.8163 49.607C44.4443 50.5524 42.9748 51.4441 41.991 52.8815C41.4207 53.7154 40.6873 54.5654 40.5984 55.5206C40.4664 56.9334 40.3226 58.4088 40.8037 59.8163C40.9198 60.1558 40.7128 60.6291 40.785 60.7452C41.0633 61.1908 41.2311 61.6948 41.5326 62.1222C42.1838 63.046 43.0816 63.8356 43.1907 65.0778ZM42.4078 92.3238C42.6243 92.2421 42.678 92.0256 42.7526 91.8524C43.4637 90.2061 44.2323 88.5799 44.7081 86.8435C44.9864 85.8273 45.4747 84.859 45.4588 83.7695C44.9674 85.6964 44.1109 87.4932 43.5025 89.3768C43.1798 90.3764 42.5759 91.2751 42.424 92.3386C41.555 93.4848 41.1284 94.8615 40.4258 96.0945C41.169 94.8803 42.0425 93.7329 42.4078 92.3238ZM74.6686 87.7438C74.6384 87.5584 74.6675 87.3936 74.4826 87.3005C74.4498 87.5858 74.2202 87.8582 74.5978 88.1083C74.8174 88.2534 74.611 88.4895 74.5547 88.6651C74.0487 90.2449 73.5567 91.8314 73.0681 93.4137C72.6032 94.9202 72.048 96.406 71.6995 97.9488C71.5247 98.7233 71.149 99.4195 70.8646 100.15C70.7337 100.486 70.6235 100.806 70.6235 101.171C70.6232 101.913 70.5717 101.932 69.8859 101.542C69.8286 101.51 69.7418 101.529 69.6493 101.523C69.6493 101.606 69.6238 101.688 69.6529 101.737C70.0904 102.463 69.9978 103.333 69.484 104.033C69.145 104.494 68.8364 104.961 68.6899 105.568C68.4697 106.48 67.8441 107.199 67.1174 107.799C67.0514 107.853 66.9012 107.828 66.8942 107.955C66.8533 108.708 66.2478 109.069 65.791 109.517C65.355 109.944 64.8174 110.257 64.4076 110.726C63.7064 111.531 62.9176 112.197 61.9565 112.732C61.5129 112.98 61.0623 113.449 60.5684 113.643C58.7433 114.358 56.9537 115.159 55.1052 115.826C51.9817 116.953 48.9066 116.622 45.8066 115.87C43.983 115.427 42.3344 114.611 40.8273 113.491C40.2511 113.062 39.7849 112.541 39.3113 112.011C37.5019 109.989 36.2335 107.674 35.5963 105.043C35.1882 103.358 35.4455 101.71 36.2897 100.193C36.5118 99.7938 36.6827 99.2704 37.432 99.3608C37.7584 99.4002 38.0823 98.793 38.3354 98.4076C40.1253 95.6829 41.5806 92.7888 42.7525 89.7484C43.9863 86.5481 45.0629 83.3141 45.4785 79.8785C45.7803 77.3846 45.4433 74.9929 44.8355 72.5863C44.3488 70.6589 43.343 69.0475 42.1945 67.4783C41.3339 66.3027 40.5641 65.0611 39.7144 63.8771C39.4131 63.4576 39.7933 63.1899 39.8825 62.6503C39.4173 63.2827 39.341 63.1558 39.1429 62.6355C38.9449 62.1155 38.5819 61.63 38.2952 61.1259C37.682 60.0468 37.3316 58.8704 37.3198 57.6582C37.3154 57.1983 37.0751 56.8146 37.1372 56.3793C37.2152 55.8306 37.2535 55.2678 37.4088 54.74C37.6829 53.8066 37.8549 52.8226 38.7673 52.1888C39.0193 52.0137 38.8697 51.4705 39.1561 51.1631C40.3818 49.8471 41.5358 48.4447 43.0686 47.4688C46.7154 45.1467 50.5351 43.1689 54.5362 41.5024C57.3221 40.3419 59.9818 38.876 62.1775 36.72C65.4087 33.5476 68.8074 30.5614 72.3039 27.688C75.6187 24.9643 79.1704 22.6268 83.2435 21.1642C84.9536 20.5502 86.7071 20.1858 88.5193 20.0608C91.106 19.8823 93.043 21.0596 94.5458 23.015C97.4318 26.7706 98.1093 30.9972 96.9988 35.5424C96.2523 38.5993 95.1528 41.5306 93.6021 44.2745C92.874 45.5623 92.1804 46.8657 90.9796 47.8455C90.4067 48.3129 90.0999 49.1023 89.6596 49.7366C88.154 51.9055 86.2598 53.7652 84.7612 55.9472C84.0938 56.9186 83.5296 57.9435 82.9006 58.9325C81.5278 61.091 80.5905 63.4732 79.5584 65.7962C78.6527 67.8344 78.3252 70.0617 77.9987 72.2691C77.6474 74.6474 77.2754 77.0235 76.8704 79.3932C76.6366 80.7621 76.4735 82.1754 75.9865 83.4579C75.6484 84.349 75.6358 85.2981 75.2311 86.1618C74.9986 86.6571 75.2484 87.3357 74.6686 87.7438Z" fill="black"/>
<path fill-rule="evenodd" clip-rule="evenodd" d="M66.2422 77.9887C66.3183 78.0287 66.3946 78.069 66.4707 78.109C66.7152 77.4603 67.41 76.9991 67.0903 76.1133C66.8075 76.7384 66.525 77.3636 66.2422 77.9887ZM51.6765 53.5947C50.0903 53.8926 48.4635 55.3862 48.6288 56.3982C49.3969 55.144 50.5101 54.3404 51.6765 53.5947ZM65.1166 44.0078C65.0702 43.946 65.0235 43.8845 64.9771 43.8232C62.8636 45.655 60.7499 47.4871 58.6367 49.3192C58.6815 49.3715 58.7265 49.4238 58.7715 49.4764L65.1166 44.0078ZM71.2188 38.1795C73.2055 36.7124 75.2473 35.3304 77.4419 34.1808C79.6603 33.0186 81.9043 31.9135 84.18 30.8828C79.5565 32.7711 74.9878 34.7612 71.2188 38.1795ZM56.9414 97.5038C57.4759 96.6325 58.1246 95.8641 58.5606 94.9115C59.5477 92.756 60.6934 90.6722 61.6326 88.49C63.0325 85.2387 64.5058 82.0218 66.2329 78.9277C66.3409 78.7339 66.4413 78.5389 66.1546 78.2578C62.7193 84.5531 60.2769 91.2442 56.9414 97.5038ZM71.4175 41.5382C70.5218 41.939 70.0791 42.8052 69.4363 43.4662C68.5922 43.9568 68.1253 44.8404 67.374 45.4331C66.0787 46.4548 64.749 47.4439 63.5373 48.5593C61.0298 50.8683 58.261 52.7541 55.1906 54.2382C54.0508 54.7895 52.7211 54.9072 51.7472 55.8605C51.1514 56.4434 50.4273 56.9147 50.3736 57.8276C50.2938 59.1803 50.5053 60.4874 51.157 61.7032C52.362 63.9509 53.9851 65.9159 55.4038 68.019C56.8781 70.2046 58.1955 72.4285 58.5312 75.1503C58.8517 77.7538 58.6587 80.3344 58.5057 82.9194C58.4747 83.443 58.1203 83.9423 58.101 84.5487C58.0744 85.3957 58.0657 86.3371 57.5279 87.0311C56.5576 88.2836 56.2359 89.8114 55.6007 91.2015C55.3926 91.6574 55.5201 92.3293 55.1199 92.6781C54.5856 93.1438 54.4419 93.7569 54.1862 94.3423C54.0866 94.5708 53.9482 94.8005 53.7728 94.9747C53.1941 95.5501 52.8297 96.3097 52.4266 96.9662C51.6353 98.2554 50.7545 99.3966 49.643 100.408C49.3227 100.7 48.8167 100.664 48.6243 101.119C48.4318 101.573 48.078 101.909 47.7071 102.222C47.3284 102.542 47.1349 102.96 46.9844 103.449C47.2621 103.529 47.4414 103.415 47.6243 103.348C48.775 102.927 49.759 102.183 50.8703 101.678C52.8196 100.791 54.464 99.5048 55.766 97.7852C56.7402 96.4986 57.4014 95.0427 58.0987 93.6067C59.4805 90.7607 60.8846 87.9236 62.1805 85.0382C62.9063 83.4218 63.6612 81.8219 64.4645 80.246C65.7993 77.628 66.9886 74.9428 68.1477 72.2473C69.076 70.0885 69.8444 67.8629 70.3473 65.5553C70.7859 63.5406 71.5506 61.6311 72.2982 59.7182C73.7217 56.0758 75.1697 52.4481 77.5164 49.2628C79.6248 46.4008 81.7604 43.5582 83.6657 40.5514C85.0878 38.307 86.3221 35.9841 86.9279 33.3747C86.9928 33.0947 87.2004 32.7275 86.9623 32.5216C86.7607 32.3471 86.4317 32.5764 86.1769 32.6771C83.5052 33.7344 80.9333 34.9934 78.4448 36.4336C77.9953 36.6937 77.5959 37.2819 76.9081 36.9944C76.811 36.9538 76.6082 37.09 76.6672 37.2067C76.8756 37.6189 76.4712 37.6139 76.3162 37.7163C75.3375 38.3632 74.3714 39.0259 73.4168 39.7086C72.67 40.2426 72.1511 41.0037 71.4175 41.5382ZM51.6987 94.2896C51.9144 94.2745 51.9762 94.0997 52.0553 93.9445C53.0567 91.9793 53.7993 89.8999 54.7086 87.895C55.1447 86.9326 54.9956 85.7779 55.7281 84.922C55.8535 84.7755 55.814 84.6311 55.6392 84.5562C55.4098 84.4577 55.2865 84.6107 55.2608 84.7981C55.1612 85.529 54.8121 86.1701 54.5696 86.8506C53.9448 88.6035 53.4094 90.3816 52.5734 92.0626C52.226 92.7616 51.8408 93.4975 51.7163 94.3064C51.0985 95.1251 50.6574 96.0367 50.3125 96.9983C50.7452 96.0806 51.5751 95.3665 51.6987 94.2896ZM78.8363 51.6853C79.1076 52.1446 79.0156 52.433 78.8332 52.8777C78.3887 53.9621 77.4811 54.8141 77.3096 56.0238C77.2487 56.4557 76.9133 56.7818 76.708 57.1452C76.1852 58.0699 76.0848 59.1459 75.6146 60.0468C75.1685 60.9016 74.9772 61.8378 74.5224 62.6735C74.2807 63.1172 74.3657 63.6696 74.0511 64.0998C73.8388 64.3895 73.314 66.1934 73.2531 66.5405C73.1001 67.4148 72.9222 68.285 72.7457 69.1551C72.7155 69.3045 72.6483 69.4581 72.445 69.4259C72.2352 69.3929 72.1337 69.4883 72.2143 69.6746C72.5158 70.3727 72.1558 70.9981 71.8876 71.5463C71.1075 73.1395 70.43 74.7772 69.745 76.4082C69.6094 76.7315 68.9792 76.6437 69.2038 77.2879C69.3171 77.6132 68.9509 78.1768 68.6975 78.5974C68.4508 79.008 68.285 79.4662 68.0615 79.8919C66.4154 83.0299 64.9028 86.2303 63.4695 89.4718C62.6746 91.2698 61.7259 92.9989 60.8884 94.7789C60.677 95.2287 60.5385 95.7336 60.3964 96.2147C60.2658 96.6566 60.0742 97.2904 59.5344 97.5682C59.4342 97.6196 59.3719 97.6652 59.3391 97.7679C58.679 99.8466 56.9057 100.934 55.3243 102.151C54.192 103.023 52.8111 103.538 51.5264 104.141C50.7315 104.513 50.0003 105.106 49.0742 105.237C48.1459 105.369 47.2237 105.536 46.2825 105.555C45.3696 105.574 44.5254 105.36 43.7694 104.835C43.3733 104.561 43.3132 104.211 43.486 103.77C43.9142 102.676 44.5601 101.761 45.5547 101.11C45.9357 100.861 46.3429 100.645 46.5966 100.238C46.7776 99.947 47.0841 100.313 47.4203 99.9823C48.6099 98.8123 49.3509 97.3894 50.1139 95.9593C51.6942 92.9969 52.8707 89.8648 54.0035 86.7153C54.4935 85.3523 54.7486 83.9314 54.9715 82.5027C55.1125 81.6006 55.2073 80.698 55.2678 79.7884C55.2954 79.3666 55.4652 79.0201 55.983 79.2768C56.2918 79.4301 56.3869 79.2055 56.5317 79.0466C56.6347 78.9336 56.6137 78.8044 56.5147 78.7093C56.334 78.5365 56.1771 78.7166 56.0358 78.7854C55.4563 79.0673 55.2669 78.8992 55.2963 78.2654C55.378 76.5189 55.4222 74.7719 54.9685 73.0551C54.7427 72.1995 54.4258 71.3785 54.0127 70.6032C52.8052 68.3356 51.2456 66.2918 49.8664 64.1328C48.8575 62.5524 47.8198 60.9724 47.6078 59.0435C47.5582 58.5946 47.2019 58.0475 47.8228 57.683C47.8572 57.6632 47.8875 57.5994 47.8847 57.5586C47.7644 55.7942 47.8189 55.75 49.018 54.5134C49.7962 53.7109 50.7452 53.1527 51.7121 52.7082C55.27 51.0722 58.2682 48.6919 61.2031 46.1446C64.7758 43.0436 68.0307 39.5836 71.7424 36.6582C75.8087 33.4539 80.46 31.2582 85.397 29.7413C88.003 28.9408 89.9338 30.8856 89.3658 33.5901C88.7985 36.2904 87.7745 38.8178 86.4143 41.2224C84.8527 43.9825 83.0634 46.5975 81.3321 49.2469C80.8571 49.9738 80.4544 50.7623 79.8751 51.433C79.5747 51.7807 79.3518 52.0861 78.8363 51.6853Z" fill="black"/>
<path fill-rule="evenodd" clip-rule="evenodd" d="M71.4226 41.5371C70.9736 42.3966 70.2671 42.9924 69.4414 43.4651C70.0842 42.8042 70.5269 41.9379 71.4226 41.5371Z" fill="black"/>
</svg>
