<svg width="135" height="135" viewBox="0 0 135 135" fill="none" xmlns="http://www.w3.org/2000/svg">
<rect width="135" height="135" rx="67.5" fill="#F1EABA"/>
<path d="M41.2274 48.5847C39.0599 48.5847 37.5319 47.1989 37.3898 45.1379C37.2832 43.9298 37.6385 42.8282 38.3137 41.8333C39.0243 40.8383 40.5878 40.0921 41.8315 40.8383C41.9381 40.9094 42.0803 40.9449 42.2224 40.9804C43.857 41.1581 45.3139 42.9703 45.2783 44.8537C45.2428 46.6659 43.7504 48.2294 41.8315 48.5137C41.6183 48.5492 41.3696 48.5847 41.2274 48.5847Z" fill="black"/>
<path d="M58.3903 37.7826C55.9385 37.7826 54.3394 35.7927 54.908 33.3764C55.0856 32.5591 55.4765 31.8129 56.0806 31.2443C56.7557 30.6047 57.5375 30.2849 58.4969 30.5336C58.9233 30.6402 59.3497 30.6402 59.7406 30.7469C61.162 31.0311 62.1569 31.8839 62.5123 33.3053C62.9031 34.7267 62.3701 35.8638 61.3041 36.7876C60.4868 37.4983 59.4919 37.7826 58.3903 37.7826Z" fill="black"/>
<path d="M34.651 58.7125C34.6154 61.0932 32.3768 62.6212 30.2092 61.6973C27.2243 60.4536 26.9401 57.22 28.2548 55.159C28.5746 54.6616 29.0366 54.3418 29.6051 54.1641C30.1026 54.022 30.6356 53.9864 30.9909 54.3062C31.5595 54.8392 32.2702 55.0169 32.8742 55.4078C33.9758 56.1185 34.651 57.3622 34.651 58.7125Z" fill="black"/>
<path d="M39.6281 95.3124C37.0341 95.3124 35.1153 93.2514 35.2574 90.8706C35.364 89.2005 36.43 88.3833 38.0646 88.7741C38.3133 88.8452 38.5621 88.8097 38.8108 88.8452C39.2728 88.8807 39.7702 88.8807 40.2322 88.9518C41.8667 89.2361 43.0394 90.5508 43.0394 92.1143C43.0394 93.5712 41.8667 94.9215 40.3032 95.2769C40.0545 95.2769 39.7702 95.2769 39.6281 95.3124Z" fill="black"/>
<path d="M33.125 74.7731C33.125 76.0524 32.7341 77.1184 31.8813 77.9712C30.7087 79.1438 29.0031 79.2504 27.7238 78.1844C26.1248 76.9052 25.7695 74.2401 26.9776 72.6411C27.866 71.4685 29.1452 71.2552 30.4955 71.5395C31.8813 71.8238 32.6986 72.7477 33.0184 74.1335C33.0895 74.3822 33.125 74.631 33.125 74.7731Z" fill="black"/>
<path d="M70.9336 100.785C70.9336 98.9372 72.3194 97.5869 74.2738 97.5869C76.548 97.5869 78.1825 99.0793 78.1825 101.176C78.1825 103.024 76.5835 104.516 74.6291 104.552C72.5326 104.552 70.9336 102.917 70.9336 100.785Z" fill="black"/>
<path d="M55.793 103.912C53.5543 103.912 51.3868 101.744 51.4223 99.5054C51.4223 97.9419 52.6305 97.0891 54.1229 97.551C54.4782 97.6576 54.9046 97.6576 55.2955 97.6576C56.9301 97.5865 58.1382 98.3327 58.6713 99.7186C59.4885 101.815 58.0672 103.947 55.793 103.912Z" fill="black"/>
<path d="M98.2581 93.963C98.2581 95.5265 96.9434 96.9124 95.3088 97.09C93.8874 97.2322 92.395 96.3793 91.862 95.0646C91.5067 94.2118 91.5422 93.3945 92.0752 92.6483C92.1107 92.5772 92.1818 92.5061 92.2173 92.4351C93.4255 90.765 95.2377 90.4452 96.9789 91.5822C97.7962 92.1508 98.2581 93.0036 98.2581 93.963Z" fill="black"/>
<path d="M70.5781 35.2597C70.5781 34.5135 70.7558 33.9094 71.1467 33.3408C71.8574 32.2748 72.9944 31.9906 74.1315 32.5946C74.5935 32.8434 75.0199 33.0921 75.4463 33.4119C76.3702 34.1581 76.7611 35.1176 76.4768 36.2902C76.1925 37.4983 75.3752 38.2445 74.1315 38.4933C72.9589 38.7065 71.9995 38.2801 71.2888 37.3562C70.7913 36.7166 70.5781 36.0059 70.5781 35.2597Z" fill="black"/>
<path d="M105.438 75.2711C107.321 75.2356 108.778 76.7991 108.743 78.4692C108.707 79.4641 108.352 80.2814 107.605 80.9566C106.042 82.3779 103.661 81.6317 103.199 79.5707C103.093 79.1088 103.057 78.5758 103.199 78.1494C103.412 77.4387 103.768 76.728 104.123 76.0529C104.478 75.4843 105.083 75.2711 105.438 75.2711Z" fill="black"/>
<path d="M78.1448 58.712C78.1448 58.6054 78.1092 58.4633 78.1092 58.3211C78.0381 57.1485 78.6778 56.3668 79.7793 56.118C81.3073 55.7982 83.0129 56.8287 83.3327 58.2856C83.6881 59.8136 82.6931 61.306 81.1296 61.6969C79.5306 62.0877 77.7894 60.8796 78.0737 59.0673C78.1092 58.9607 78.1092 58.8541 78.1448 58.712Z" fill="black"/>
<path d="M49.6836 52.4224C49.7191 51.3208 50.0034 50.468 50.7141 49.8284C51.9222 48.7269 53.5923 49.1177 54.1254 50.4325C54.2675 50.7523 54.4452 51.0366 54.6228 51.3208C55.1203 52.2803 55.1558 53.2397 54.5162 54.128C53.9121 54.9809 53.0593 55.3717 51.9933 55.1941C50.8562 55.0164 50.1811 54.3057 49.8257 53.2752C49.7547 52.9199 49.7191 52.6001 49.6836 52.4224Z" fill="black"/>
<path d="M63.2945 83.7285C64.2539 84.1549 65.4976 84.4392 66.1727 85.6118C66.7058 86.5712 66.4926 87.7439 65.6753 88.5967C64.8224 89.4495 63.5788 89.6627 62.5483 89.1652C61.0558 88.419 60.4162 86.358 61.2335 84.9011C61.6244 84.1549 62.2995 83.7285 63.2945 83.7285Z" fill="black"/>
<path d="M78.7152 86.7132C77.1872 86.7132 75.9436 85.4339 76.0146 83.906C76.0502 83.3019 76.2278 82.6623 76.5121 82.1293C76.9385 81.2764 77.7558 80.9566 78.6441 81.1343C79.2482 81.2409 79.8523 81.4896 80.3498 81.845C81.4158 82.5557 81.8067 83.7283 81.4513 84.7943C81.096 85.9314 79.9234 86.7132 78.7152 86.7132Z" fill="black"/>
<path d="M43.3945 63.4382C43.3945 62.6565 43.6077 61.9813 44.1763 61.4483C45.0646 60.631 46.3439 60.7021 47.0901 61.626C47.3388 61.9458 47.5876 62.23 47.8718 62.5143C48.2982 62.9407 48.618 63.4382 48.7602 64.0423C49.1155 65.7124 47.7297 67.1337 46.0596 66.8139C44.6027 66.5652 43.4301 65.0728 43.3945 63.4382Z" fill="black"/>
<path d="M88.2736 45.2805C87.2431 45.2805 86.3547 44.6409 86.106 43.6104C85.9994 43.1485 85.8217 42.7221 85.5019 42.3312C84.7557 41.4429 85.04 40.1992 86.0705 39.6662C86.2837 39.5596 86.5324 39.453 86.7812 39.4174C88.4513 39.2042 90.4412 40.7322 90.6188 42.4023C90.7965 43.9303 89.6949 45.2805 88.2736 45.2805Z" fill="black"/>
<path d="M64.5025 48.5143C64.5025 49.3671 64.3604 50.0067 63.934 50.6108C63.0456 51.89 61.3044 51.9966 60.2739 50.7885C59.4211 49.829 59.3501 48.4787 60.0252 47.4127C60.1673 47.164 60.3095 46.9152 60.4161 46.6665C60.9846 45.2451 62.5837 44.9253 63.6142 46.0624C64.3248 46.8086 64.5025 47.697 64.5025 48.5143Z" fill="black"/>
<path d="M99.2556 52.7066C99.2556 54.0569 98.2606 55.1229 96.9459 55.2295C95.5245 55.3361 94.2808 54.3056 94.1387 52.8487C94.0676 52.3157 94.1032 51.7827 94.1387 51.2497C94.2453 50.3258 94.9915 49.6862 95.9509 49.6151C97.55 49.473 99.2911 51.1075 99.2556 52.7066Z" fill="black"/>
<path d="M106.787 63.1537C106.787 64.504 105.721 65.7122 104.336 65.8543C103.056 65.9965 101.813 65.1437 101.564 63.8644C101.386 63.0116 101.599 62.1588 101.955 61.4126C102.097 61.0928 102.488 60.8085 102.808 60.6308C104.478 59.8135 106.787 61.2704 106.787 63.1537Z" fill="black"/>
<path d="M90.2298 72.108C90.2298 73.2807 89.4836 74.2756 88.3465 74.5244C87.2804 74.7731 86.2144 74.2045 85.7169 73.1385C85.5748 72.8543 85.3971 72.5344 85.1839 72.2857C84.4377 71.2552 84.7931 69.9049 85.9657 69.3719C87.8135 68.5546 90.2298 70.1181 90.2298 72.108Z" fill="black"/>
<path d="M73.0645 51.1083C73.0645 51.2149 73.0646 51.357 73.029 51.5347C72.8513 52.7428 71.9985 53.5956 70.897 53.5956C69.8309 53.5956 68.9426 52.8139 68.7294 51.6768C68.6228 51.0372 68.4807 50.3976 68.374 49.758C68.2319 49.0117 68.4096 48.3366 69.0492 47.8747C69.7243 47.3772 70.435 47.4127 71.1457 47.8036C72.1051 48.3011 73.0645 49.9001 73.0645 51.1083Z" fill="black"/>
<path d="M53.8405 78.7898C53.7695 79.7137 53.3075 80.4955 52.3481 80.9219C51.3887 81.3483 50.4648 81.2061 49.6475 80.4955C48.6881 79.6782 48.3683 78.1502 48.9013 76.9776C49.4343 75.805 50.7491 75.343 51.9217 75.9471C53.1299 76.5512 53.8405 77.5817 53.8405 78.7898Z" fill="black"/>
<path d="M62.1555 63.7587C62.1199 64.2917 62.1199 64.647 62.0844 64.9668C61.9423 65.8196 61.4448 66.3882 60.592 66.6369C59.7747 66.8501 59.064 66.6014 58.531 65.9973C57.536 64.9313 57.6426 63.0835 58.6376 62.0886C59.3127 61.4489 60.2722 61.2713 61.0894 61.6622C61.8712 62.0175 62.2265 62.7637 62.191 63.6876C62.1555 63.7942 62.1555 63.8653 62.1555 63.7587Z" fill="black"/>
<path d="M71.1116 76.7282C71.1116 77.6521 70.4364 78.4338 69.477 78.647C68.5531 78.8602 67.7359 78.6115 67.0607 77.9008C66.4211 77.1901 66.2079 76.3729 66.4566 75.449C66.6698 74.6672 67.2028 74.1697 67.9846 73.9921C68.7308 73.8144 69.3704 74.0631 69.9034 74.6317C70.1166 74.8804 70.3654 75.1292 70.5786 75.3779C70.9695 75.7688 71.1471 76.1952 71.1116 76.7282Z" fill="black"/>
<path d="M62.0489 73.0331C62.0133 74.1702 61.658 74.8453 60.8763 75.2362C60.0945 75.6271 59.3128 75.5205 58.6376 74.9875C57.6071 74.2057 57.3584 72.6067 58.0335 71.5051C58.8508 70.1904 60.6275 70.1903 61.4093 71.5406C61.7291 72.0381 61.9067 72.6777 62.0489 73.0331Z" fill="black"/>
<path d="M74.9481 66.3519C74.9481 67.418 74.344 68.3063 73.4201 68.5551C72.4962 68.8038 71.5013 68.3774 71.0038 67.4535C70.684 66.885 70.5419 66.2453 70.684 65.5702C70.8617 64.7174 71.3592 64.1488 72.212 63.9356C73.0293 63.7224 73.7044 64.0067 74.2729 64.6108C74.7349 65.0727 74.9126 65.7123 74.9481 66.3519Z" fill="black"/>
<path d="M69.4418 62.1947C68.2691 62.1947 67.2031 61.0932 67.2031 59.885C67.2031 58.819 68.0204 58.0017 69.0864 58.0372C70.4723 58.0372 71.5383 58.9611 71.5383 60.0982C71.5383 61.1998 70.5789 62.1947 69.4418 62.1947Z" fill="black"/>
</svg>
