<svg width="135" height="135" viewBox="0 0 135 135" fill="none" xmlns="http://www.w3.org/2000/svg">
<rect width="135" height="135" rx="67.5" fill="#F1EABA"/>
<path fill-rule="evenodd" clip-rule="evenodd" d="M82.4414 52.1018C82.5255 52.1865 82.6099 52.2712 82.694 52.3559C83.3791 51.6571 84.0639 50.9588 84.7484 50.2601C84.6897 50.2007 84.6306 50.1414 84.5716 50.082C83.8614 50.7554 83.1512 51.4288 82.4414 52.1018ZM89.2031 45.5101C89.2582 45.598 89.3133 45.6863 89.368 45.7739C90.4412 44.9279 91.5141 44.0819 92.5873 43.2355C92.5236 43.153 92.4602 43.0698 92.3971 42.9873C91.3322 43.8282 90.268 44.6692 89.2031 45.5101ZM95.3041 58.4199C95.0545 58.8255 94.3436 58.4796 94.2331 59.1917C94.1363 59.8156 93.8385 60.4086 93.6211 61.0397C94.7827 60.583 94.919 59.4248 95.3041 58.4199ZM94.9695 64.3768C94.7391 63.9317 94.646 63.7508 94.5844 63.6317C93.8829 63.7338 94.8123 65.184 93.7155 64.8522C93.2658 65.3954 92.9133 65.9247 92.4604 66.3466C91.4705 67.2686 90.4563 68.17 89.395 69.008C88.979 69.3366 88.4073 69.465 87.9134 69.6999C87.738 69.7831 87.504 69.8743 87.4326 70.0255C86.4594 72.1047 84.6778 73.3541 82.8722 74.6191C80.9982 75.9319 79.2967 77.5117 77.3484 78.692C75.7045 79.6878 73.9646 80.8041 71.7877 79.6267C70.6887 79.0325 70.1289 77.4625 70.9651 76.5141C71.2423 76.2 71.471 75.8179 71.63 75.4296C73.0863 71.8771 74.5526 68.3285 75.9552 64.7549C77.1734 61.651 78.2503 58.4903 79.509 55.4038C80.3228 53.4093 81.745 51.8013 83.3444 50.3673C84.3241 49.4884 85.3238 48.6319 86.4612 47.9194C86.2452 48.2603 86.0289 48.6011 85.8133 48.9423C85.8633 48.9966 85.914 49.0513 85.9644 49.1059C86.6181 48.498 87.2717 47.8897 87.9257 47.2818C87.8819 47.2073 87.8384 47.1331 87.7942 47.0586C87.5036 47.1523 87.213 47.246 86.9221 47.3401C86.8721 47.2884 86.8224 47.237 86.7728 47.1852C87.0779 46.8473 87.3388 46.4507 87.6949 46.1797C91.0842 43.6019 94.4884 41.044 97.8911 38.484C98.3404 38.146 98.836 37.8627 99.2527 37.4904C100.036 36.7913 101.601 36.2243 102.131 36.6299C103.011 37.3026 103.67 38.175 103.434 39.3817C103.167 40.7546 102.975 42.1683 102.487 43.4655C101.743 45.4411 101.493 47.5474 100.708 49.4996C100.581 49.8126 100.325 50.0731 100.198 50.3861C100.073 50.6929 100.016 51.0331 99.9651 51.3642C99.86 52.0542 99.8303 52.7602 99.6748 53.4375C99.4785 54.2922 99.2266 55.1393 98.9288 55.9639C98.307 57.683 97.6494 59.3895 96.9758 61.0891C96.9048 61.2689 96.6225 61.3586 96.4558 61.5095C96.2961 61.6535 96.0037 61.8761 96.0363 61.973C96.4258 63.1172 94.9779 63.2341 94.9695 64.3768Z" fill="black"/>
<path fill-rule="evenodd" clip-rule="evenodd" d="M69.6883 53.4201C69.5573 53.3492 69.4258 53.2779 69.2952 53.207C68.6851 54.4373 68.0749 55.6679 67.4648 56.8989C67.5592 56.9479 67.6535 56.9976 67.7479 57.0473C68.3947 55.8382 69.0415 54.6291 69.6883 53.4201ZM54.808 72.4759C54.1535 70.6742 54.5228 67.8421 55.5345 67.1157C55.2404 67.1003 54.982 67.0868 54.7008 67.0722C54.6704 66.9743 54.6182 66.8873 54.6204 66.8022C54.7038 63.7256 54.7585 60.6475 54.8899 57.5728C54.9971 55.064 55.192 52.5589 55.3553 50.0523C55.6064 46.2033 57.3134 42.9791 59.6727 40.0228C63.0161 35.8336 66.3442 31.6345 70.2698 27.9503C71.1409 27.1329 71.9173 26.2161 72.7639 25.3714C73.2143 24.9216 73.5905 24.85 74.176 25.394C75.1393 26.29 75.2278 27.3474 75.111 28.4827C74.6621 32.8608 74.1606 37.2334 73.7183 41.6122C73.4499 44.269 73.2877 46.9367 73.0054 49.5919C72.9276 50.322 72.5509 51.0162 72.3832 51.743C72.2088 52.4964 72.1637 53.2787 71.9893 54.0322C71.1788 57.5264 69.1164 60.2946 66.7575 62.8885C64.8582 64.9767 63.0033 67.1058 61.0658 69.1578C60.0603 70.2229 58.9969 71.2727 57.8016 72.1043C57.2613 72.4803 56.3351 72.3057 55.584 72.3828C55.3502 72.4072 55.1175 72.4387 54.808 72.4759Z" fill="black"/>
<path fill-rule="evenodd" clip-rule="evenodd" d="M101.182 77.9106C100.934 79.3849 100.583 81.2026 100.332 83.0341C100.026 85.2597 99.7341 87.4918 99.5748 89.7309C99.4839 91.0062 99.0124 92.0453 98.2051 92.9371C96.6895 94.6112 95.0133 96.1466 93.5973 97.8996C92.0171 99.8567 89.9647 101.194 88.0635 102.738C85.993 104.419 83.9323 106.113 81.8383 107.765C81.0917 108.354 80.2585 108.831 79.4693 109.366C78.0894 110.301 76.5897 109.981 75.1319 109.709C74.8268 109.652 74.4387 109.078 74.4055 108.712C74.3449 108.035 74.4359 107.316 74.607 106.651C75.7619 102.162 76.984 97.6892 78.1223 93.1957C78.7057 90.8923 79.7133 88.8497 81.3257 87.1219C84.2262 84.0132 87.0794 80.8567 90.0618 77.8302C92.0319 75.8314 94.3923 74.3081 96.8217 72.9156C98.7235 71.8254 100.768 72.8499 101.026 75.0564C101.122 75.8752 101.12 76.7057 101.182 77.9106Z" fill="black"/>
<path fill-rule="evenodd" clip-rule="evenodd" d="M62.9914 88.5546C62.8626 88.4839 62.7332 88.4125 62.6041 88.3418C62.2856 88.8811 61.9672 89.4205 61.6484 89.9594C61.7534 90.021 61.858 90.0826 61.9625 90.1442C62.3058 89.6143 62.6484 89.0845 62.9914 88.5546ZM60.1758 92.9127C60.2338 92.9557 60.2923 92.999 60.3507 93.0424C61.1404 92.198 61.9309 91.3537 62.7207 90.5086C62.6655 90.4565 62.6099 90.404 62.5544 90.3516C61.7614 91.205 60.9684 92.0588 60.1758 92.9127ZM52.3242 84.9023C52.4277 85.0054 52.5309 85.1082 52.634 85.2109C53.3037 84.4023 53.9733 83.5944 54.643 82.7861C54.6834 82.8291 54.7238 82.8718 54.7642 82.9148C53.951 83.5776 53.1378 84.2398 52.3242 84.9023ZM49.923 88.3728C50.712 86.9822 51.3153 85.4309 52.3272 84.2319C54.6983 81.423 57.2208 78.7388 59.7689 76.0902C61.4216 74.3728 63.2189 72.797 64.9769 71.186C65.1677 71.0103 65.5705 70.8912 65.7992 70.9702C66.5615 71.2333 67.507 71.4852 67.4987 72.4975C67.484 74.2911 67.3293 76.0844 67.203 77.8755C67.0804 79.6115 66.9254 81.3454 66.7739 83.0793C66.5283 85.8966 66.1024 88.7 64.6939 91.1758C64.0199 92.3609 62.9294 93.3124 61.9896 94.3334C60.9972 95.4125 59.99 96.4809 58.9323 97.4933C58.1014 98.2884 57.1811 98.987 56.307 99.7362C55.6139 100.33 54.8768 100.885 54.2536 101.548C52.5573 103.35 50.6972 104.924 48.5014 106.068C48.0352 106.311 45.9385 106.05 45.6356 105.676C45.0849 104.997 45.3219 104.281 45.5372 103.52C46.121 101.457 46.6179 99.3678 47.1632 97.2925C47.852 94.6742 48.5389 92.0551 49.2667 89.4485C49.3763 89.0557 49.7048 88.7255 49.9367 88.3625C50.0589 88.5236 50.1765 88.6883 50.3352 88.9114C50.9901 87.7984 51.6161 86.7347 52.2421 85.6706C52.1502 85.6138 52.0578 85.5569 51.9655 85.5001C51.7394 85.8386 51.5227 86.1834 51.2858 86.5135C50.8379 87.1378 50.3777 87.7536 49.923 88.3728Z" fill="black"/>
<path fill-rule="evenodd" clip-rule="evenodd" d="M42.817 71.3937C42.7336 71.3603 42.6501 71.327 42.5666 71.2939C42.1525 72.3245 41.7383 73.3554 41.3242 74.386C41.4033 74.4157 41.482 74.4451 41.5607 74.4748C41.9796 73.4479 42.3981 72.421 42.817 71.3937ZM39.395 67.0862C39.313 67.0238 39.2302 66.9618 39.1482 66.8994C38.2979 67.9111 37.448 68.9224 36.5977 69.9345L36.8154 70.1064C37.6756 69.0998 38.5355 68.0928 39.395 67.0862ZM31.5156 87.7759C31.9474 84.6197 32.331 81.8487 32.7043 79.0766C32.8532 77.9688 33.0228 76.861 33.1067 75.7477C33.3266 72.8167 35.1015 70.7404 36.9526 68.6691C38.2898 67.1728 39.4814 65.5502 40.8025 64.0387C42.3998 62.2108 44.0265 60.404 45.7242 58.6675C46.2483 58.1314 46.9537 57.6881 47.8908 58.0777C48.9871 58.534 49.8312 59.1482 49.8492 60.4051C49.8816 62.6951 49.9353 64.9902 49.8154 67.2744C49.7551 68.4217 49.2586 69.5401 49.0949 70.6903C48.9327 71.8326 48.9849 73.0036 48.8588 74.1531C48.7683 74.9791 48.6749 75.8496 48.3391 76.5933C47.9272 77.5048 47.3527 78.383 46.6848 79.1343C45.5859 80.3705 44.3579 81.4961 43.1798 82.6631C41.5234 84.3048 39.936 86.0145 37.8816 87.2188C37.2107 87.612 36.698 88.2584 36.0699 88.7336C34.9305 89.5951 33.6204 89.3466 32.4277 88.99C31.9676 88.8522 31.7105 88.0538 31.5156 87.7759Z" fill="black"/>
</svg>
